<svg xmlns="http://www.w3.org/2000/svg" width="32.892" height="32.892" viewBox="0 0 32.892 32.892"><defs><style>.a{opacity:0.231;}</style></defs><g class="a" transform="translate(32.892 16.445) rotate(135)"><path d="M22.8.363A1.277,1.277,0,0,0,21.924,0a1.574,1.574,0,0,0-.178.036L5.064.066a1.308,1.308,0,0,0-1.3,1.3,1.292,1.292,0,0,0,1.3,1.3l13.692-.026L.389,21a1.319,1.319,0,1,0,1.865,1.865L20.616,4.507,20.59,18.2a1.3,1.3,0,0,0,2.6,0l.033-16.68a1.126,1.126,0,0,0,.036-.178A1.273,1.273,0,0,0,22.9.456c-.017-.019-.021-.04-.038-.057S22.821.377,22.8.363Z"/></g></svg>