<svg xmlns="http://www.w3.org/2000/svg" width="214.805" height="214.804" viewBox="0 0 214.805 214.804">
  <path id="Icon_metro-earth" data-name="Icon metro-earth" d="M109.973,1.928a107.4,107.4,0,1,0,107.4,107.4,107.4,107.4,0,0,0-107.4-107.4Zm0,201.38A93.662,93.662,0,0,1,72.8,195.661L121.7,140.641a6.713,6.713,0,0,0,1.7-4.46V116.043a6.712,6.712,0,0,0-6.713-6.713c-23.7,0-48.709-24.64-48.955-24.884a6.711,6.711,0,0,0-4.746-1.966H36.134a6.713,6.713,0,0,0-6.713,6.713v40.276a6.712,6.712,0,0,0,3.711,6l23.14,11.57v39.413a94.034,94.034,0,0,1-31.227-117.4H49.559a6.714,6.714,0,0,0,4.747-1.966L81.157,40.238a6.714,6.714,0,0,0,1.966-4.747V19.253a94.24,94.24,0,0,1,68.025,5.582c-.869.735-1.715,1.5-2.527,2.315a40.281,40.281,0,0,0,28.452,68.76q1,0,2-.05c2.9,10.867,8.129,39.155-1.763,78.1a6.7,6.7,0,0,0-.177,1.1,93.685,93.685,0,0,1-67.156,28.247Z" transform="translate(-2.571 -1.928)"/>
</svg>
