<svg xmlns="http://www.w3.org/2000/svg" width="53" height="53" viewBox="0 0 53 53">
  <g id="cEUR_Color_S_Circle" data-name="cEUR Color S Circle" transform="translate(0 -0.383)">
    <circle id="Ellipse_388" data-name="Ellipse 388" cx="26.5" cy="26.5" r="26.5" transform="translate(0 0.383)" fill="#458bea"/>
    <path id="Path_677" data-name="Path 677" d="M234.429,237.9l.956-3.186h-8.55v-.8h8.816l.956-3.186h-8.763a5.356,5.356,0,0,1,4.673-2.23,8.185,8.185,0,0,1,4.408,1.328l1.062-3.452a11.01,11.01,0,0,0-5.47-1.381,9.016,9.016,0,0,0-8.656,5.682h-2.337l-1.009,3.08h2.708v1.115h-1.7l-1.009,3.08h3.4a8.853,8.853,0,0,0,8.55,5.629,9.326,9.326,0,0,0,5.311-1.593v-4.2a7.52,7.52,0,0,1-5.257,2.284,5.483,5.483,0,0,1-4.62-2.177ZM222.48,250.969a8.44,8.44,0,0,1-3.452-16.144v-4.3a12.485,12.485,0,1,0,15.454,15.454h-4.3A8.4,8.4,0,0,1,222.48,250.969Z" transform="translate(-198.848 -212.775)" fill="#457fcd"/>
    <path id="Path_678" data-name="Path 678" d="M231.949,263.943a11.972,11.972,0,0,0,11.258-7.966h-3.239a8.9,8.9,0,0,1-8.019,4.992,9,9,0,0,1-8.975-8.975,8.9,8.9,0,0,1,4.992-8.019v-3.239a11.945,11.945,0,0,0,3.983,23.207Zm9.984-11.418a9.1,9.1,0,0,0,4.78-1.328v-2.762a7.728,7.728,0,0,1-4.726,1.646,5.836,5.836,0,0,1-5.523-3.239h7.063l.637-2.124h-8.338a5.151,5.151,0,0,1-.053-.9,5.771,5.771,0,0,1,.053-.956h8.922l.637-2.124H236.41a5.766,5.766,0,0,1,5.576-3.293,8.533,8.533,0,0,1,4.089,1.062l.743-2.39A10.6,10.6,0,0,0,241.986,235a8.473,8.473,0,0,0-8.285,5.682h-2.337l-.637,2.018h2.549a7.846,7.846,0,0,0-.053,1.115,7.12,7.12,0,0,0,.053,1.062h-1.912l-.637,2.018h3.027A8.248,8.248,0,0,0,241.933,252.525Z" transform="translate(-208.317 -222.244)" fill="#fff"/>
  </g>
</svg>
