<svg xmlns="http://www.w3.org/2000/svg" width="26" height="25" viewBox="0 0 26 25">
  <g id="Polygon_7" data-name="Polygon 7" fill="none" stroke-linecap="round" stroke-linejoin="round">
    <path d="M13,0l3.9,8.393L26,9.549l-6.69,6.343L21.034,25,13,20.528,4.966,25,6.69,15.893,0,9.549,9.1,8.393Z" stroke="none"/>
    <path d="M 13 4.745887756347656 L 10.91372966766357 9.235440254211426 C 10.62397956848145 9.858980178833008 10.03423976898193 10.28995990753174 9.35215950012207 10.37664985656738 L 4.437944412231445 11.0012092590332 L 8.065830230712891 14.44134044647217 C 8.559429168701172 14.90939998626709 8.781299591064453 15.5962495803833 8.654769897460938 16.26461982727051 L 7.725194931030273 21.17497634887695 L 12.02729034423828 18.78034019470215 C 12.632080078125 18.44369888305664 13.367919921875 18.44369888305664 13.97270965576172 18.78034019470215 L 18.27480316162109 21.17497634887695 L 17.34523010253906 16.26461982727051 C 17.21870040893555 15.5962495803833 17.44057083129883 14.90939998626709 17.93416976928711 14.44134044647217 L 21.56205368041992 11.0012092590332 L 16.6478385925293 10.37664985656738 C 15.96576023101807 10.28995990753174 15.37602043151855 9.858980178833008 15.08627033233643 9.235440254211426 L 13 4.745887756347656 M 13 0 L 16.89999961853027 8.392610549926758 L 26 9.549150466918945 L 19.31032943725586 15.89260959625244 L 21.03443908691406 25 L 13 20.52786064147949 L 4.965560913085938 25 L 6.689670562744141 15.89260959625244 L 0 9.549150466918945 L 9.100000381469727 8.392610549926758 L 13 0 Z" stroke="none" fill="#fff"/>
  </g>
</svg>
